
<svg xmlns="http://www.w3.org/2000/svg" width="428.7808837890625" height="128.67904663085938" viewBox="-124.87347412109375 6.828411102294922 428.7808837890625 128.67904663085938"><title>Neo4j Graph Visualization</title><desc>Created using Neo4j (http://www.neo4j.com/)</desc><g class="layer relationships"><g class="relationship" transform="translate(274.9074072209438 35.82841126498835) rotate(526.7840486615974)"><path class="outline" fill="#A5ABB6" stroke="none" d="M 25 0.5 L 66.35099891072595 0.5 L 66.35099891072595 -0.5 L 25 -0.5 Z M 115.02287391072595 0.5 L 156.3738728214519 0.5 L 156.3738728214519 3.5 L 163.3738728214519 0 L 156.3738728214519 -3.5 L 156.3738728214519 -0.5 L 115.02287391072595 -0.5 Z"/><text text-anchor="middle" pointer-events="none" font-size="8px" fill="#000000" x="90.68693641072595" y="3" transform="rotate(180 90.68693641072595 0)" font-family="sans-serif">REVIEWED</text></g><g class="relationship" transform="translate(-95.87347749310696 106.50746448903841) rotate(351.61782868025125)"><path class="outline" fill="#A5ABB6" stroke="none" d="M 25 0.5 L 61.98903022179583 0.5 L 61.98903022179583 -0.5 L 25 -0.5 Z M 120.43043647179583 0.5 L 157.41946669359166 0.5 L 157.41946669359166 3.5 L 164.41946669359166 0 L 157.41946669359166 -3.5 L 157.41946669359166 -0.5 L 120.43043647179583 -0.5 Z"/><text text-anchor="middle" pointer-events="none" font-size="8px" fill="#000000" x="91.20973334679583" y="3" font-family="sans-serif">COMMENTED</text></g></g><g class="layer nodes"><g class="node" transform="translate(91.52256151193293,78.89480565823662)"><circle class="outline" cx="0" cy="0" r="25" fill="#57C7E3" stroke="#23b3d7" stroke-width="2px"/><text text-anchor="middle" pointer-events="none" font-family="sans-serif" dy="1.5625" font-size="25" fill="#FFFFFF"/><text text-anchor="middle" pointer-events="none" y="5" font-size="10px" fill="#FFFFFF" font-family="sans-serif"> nojvek</text></g><g class="node" transform="translate(274.9074072209438,35.82841126498835)"><circle class="outline" cx="0" cy="0" r="25" fill="#57C7E3" stroke="#23b3d7" stroke-width="2px"/><text text-anchor="middle" pointer-events="none" font-family="sans-serif" dy="1.5625" font-size="25" fill="#FFFFFF"/><text text-anchor="middle" pointer-events="none" y="5" font-size="10px" fill="#FFFFFF" font-family="sans-serif"> isidorn</text></g><g class="node" transform="translate(-95.87347749310696,106.50746448903841)"><circle class="outline" cx="0" cy="0" r="25" fill="#57C7E3" stroke="#23b3d7" stroke-width="2px"/><text text-anchor="middle" pointer-events="none" font-family="sans-serif" dy="1.5625" font-size="25" fill="#FFFFFF"/><text text-anchor="middle" pointer-events="none" y="5" font-size="10px" fill="#FFFFFF" font-family="sans-serif"> jrieken</text></g></g></svg>
